<svg width="759" height="758" viewBox="0 0 759 758" fill="none" xmlns="http://www.w3.org/2000/svg">
<g id="Astronaut">
<g id="pipe">
<path id="Vector 14" d="M435.004 351.814C443.795 370.704 474.287 402.206 525.922 377.091C590.466 345.698 594.517 366.091 622.386 394.005C650.256 421.92 670.736 415.164 679.809 413.099" stroke="#F0F0F0" stroke-width="20" stroke-linecap="round"/>
<path id="Vector 15" d="M434.396 365.4C441.091 363.839 444.108 362.333 448.007 358.373" stroke="#42667C" stroke-width="2" stroke-linecap="round"/>
<path id="Vector 16" d="M450.83 381.648C456.613 377.978 458.949 375.567 461.284 370.553" stroke="#42667C" stroke-width="2" stroke-linecap="round"/>
<path id="Vector 17" d="M474.105 391.362C478.609 386.397 480.159 383.494 480.959 378.076" stroke="#42667C" stroke-width="2" stroke-linecap="round"/>
<path id="Vector 18" d="M502.941 392.616C504.626 386.214 504.65 382.935 502.835 377.711" stroke="#42667C" stroke-width="2" stroke-linecap="round"/>
<path id="Vector 19" d="M523.612 385.928C524.863 379.43 524.668 376.153 522.507 371.047" stroke="#42667C" stroke-width="2" stroke-linecap="round"/>
<path id="Vector 20" d="M543.664 378.648C544.544 372.089 544.163 368.824 541.717 363.835" stroke="#42667C" stroke-width="2" stroke-linecap="round"/>
<path id="Vector 21" d="M562.947 371.759C563.827 365.201 563.445 361.936 561 356.946" stroke="#42667C" stroke-width="2" stroke-linecap="round"/>
<path id="Vector 22" d="M581.034 369.966C583.677 363.881 584.199 360.647 583.193 355.236" stroke="#42667C" stroke-width="2" stroke-linecap="round"/>
<path id="Vector 23" d="M597.584 378.854C602.185 373.972 603.792 371.099 604.698 365.698" stroke="#42667C" stroke-width="2" stroke-linecap="round"/>
<path id="Vector 24" d="M611.043 392.515C616.248 388.227 618.218 385.572 619.818 380.33" stroke="#42667C" stroke-width="2" stroke-linecap="round"/>
<path id="Vector 25" d="M625.255 406.054C630.46 401.766 632.43 399.111 634.03 393.869" stroke="#42667C" stroke-width="2" stroke-linecap="round"/>
<path id="Vector 26" d="M641.479 416.735C646.34 412.091 648.101 409.303 649.298 403.958" stroke="#42667C" stroke-width="2" stroke-linecap="round"/>
<path id="Vector 27" d="M663.978 422.292C667.214 416.482 668.054 413.314 667.585 407.843" stroke="#42667C" stroke-width="2" stroke-linecap="round"/>
</g>
<path id="body" d="M366.338 195.606C376.949 187.497 408.831 205.836 437.407 222.402C465.007 239.381 501 257.997 501.835 272.047C502.669 286.096 410.636 409.838 410.636 409.838L291.281 340.928C291.281 340.928 355.726 203.716 366.338 195.606Z" fill="white"/>
<path id="collar" d="M388.679 207.378C393.107 199.708 403.8 198.746 409.526 205.503L425.595 224.462C430.134 229.817 436.391 233.43 443.297 234.683L467.752 239.119C476.466 240.7 480.979 250.441 476.551 258.111V258.111C476.551 258.111 476.551 258.111 476.551 258.111C476.551 258.112 468.746 271.631 424.92 246.072C381.095 220.514 388.679 207.378 388.679 207.378C388.679 207.378 388.679 207.378 388.679 207.378V207.378Z" fill="#536C7A"/>
<g id="headphone-1">
<path id="Rectangle 2" d="M418.593 135.072V135.072C411.463 130.956 402.346 133.398 398.229 140.528L395.299 145.604C391.182 152.734 393.625 161.851 400.755 165.968V165.968L418.593 135.072Z" fill="#E27DAC"/>
<ellipse id="Ellipse 6" cx="404.773" cy="140.457" rx="1.822" ry="1.86673" transform="rotate(30 404.773 140.457)" fill="#536C7A"/>
<ellipse id="Ellipse 7" cx="401.62" cy="145.918" rx="1.822" ry="1.86673" transform="rotate(30 401.62 145.918)" fill="#5FAA7D"/>
<ellipse id="Ellipse 8" cx="398.468" cy="151.379" rx="1.822" ry="1.86673" transform="rotate(30 398.468 151.379)" fill="#5FA1C6"/>
</g>
<g id="headphone-2">
<path id="Rectangle 1" d="M523.38 195.571V195.571C530.51 199.687 532.953 208.804 528.836 215.934L525.906 221.01C521.789 228.14 512.672 230.583 505.542 226.466V226.466L523.38 195.571Z" fill="#E27DAC"/>
<ellipse id="Ellipse 9" cx="525.626" cy="210.232" rx="1.822" ry="1.86673" transform="rotate(30 525.626 210.232)" fill="#536C7A"/>
<ellipse id="Ellipse 10" cx="522.473" cy="215.692" rx="1.822" ry="1.86673" transform="rotate(30 522.473 215.692)" fill="#5FAA7D"/>
<ellipse id="Ellipse 11" cx="519.32" cy="221.153" rx="1.822" ry="1.86673" transform="rotate(30 519.32 221.153)" fill="#5FA1C6"/>
</g>
<g id="main-head">
<ellipse id="Ellipse 1" cx="460.606" cy="183.135" rx="65.6334" ry="65.7504" transform="rotate(30 460.606 183.135)" fill="white"/>
<ellipse id="Ellipse 4" cx="460.663" cy="183.119" rx="58.4696" ry="58.5739" transform="rotate(30 460.663 183.119)" fill="#536C7A"/>
<path id="Subtract" fill-rule="evenodd" clip-rule="evenodd" d="M511.299 212.354C495.124 240.37 459.341 249.992 431.376 233.846C404.718 218.455 394.786 185.207 407.924 157.865C429.974 143.113 459.349 141.167 483.844 155.309C500.829 165.115 512.288 180.821 517.134 198.357C515.833 203.148 513.898 207.851 511.299 212.354ZM439.272 179.009C441.827 180.484 445.096 179.605 446.574 177.045C448.051 174.486 447.178 171.215 444.623 169.74C442.068 168.265 438.799 169.144 437.322 171.703C435.844 174.263 436.717 177.533 439.272 179.009ZM430.284 183.064C429.425 184.552 427.525 185.063 426.039 184.206C424.554 183.348 424.046 181.447 424.905 179.959C425.764 178.47 427.665 177.959 429.15 178.817C430.636 179.675 431.144 181.576 430.284 183.064ZM423.093 174.649C427.53 177.211 433.206 175.684 435.772 171.24C438.338 166.796 436.822 161.116 432.385 158.555C427.949 155.993 422.272 157.52 419.706 161.964C417.14 166.409 418.657 172.088 423.093 174.649Z" fill="#63879D"/>
</g>
<g id="left-arm">
<path id="Vector 2" d="M202.282 138.528C201.444 152.467 211.948 166.321 219.083 173.884L257.183 161.193C257.201 157.419 257.779 153.343 253.005 141.779C248.231 130.215 243.968 138.219 240.191 140.955C236.413 143.69 228.743 106.491 216.001 112.906C205.017 118.436 203.085 125.161 202.282 138.528Z" fill="#374A55"/>
<path id="Vector 1" d="M280.968 208.537C311.734 200.657 332.445 199.028 366.771 195.652L339.534 249.469L289.798 254.323C271.129 255.859 260.418 254.489 246.782 234.752C233.145 215.015 215.034 177.179 217.449 174.323C219.865 171.467 253.862 160.216 258.927 159.146C263.992 158.076 270.442 189.912 280.968 208.537Z" fill="white"/>
<path id="Vector 7" d="M217.242 175.125C228.033 168.901 250.551 162.026 260.194 159.52C260.084 158.319 258.643 155.969 257.762 155.145C251.871 154.613 226.445 163.892 215.212 170.318C215.444 171.553 216.577 174.331 217.242 175.125Z" fill="#536C7A"/>
<path id="Vector 5" d="M248.43 236.916C257.696 236.803 277.85 240.198 284.336 254.676C266.791 258.003 252.429 244.752 248.43 236.916Z" fill="#536C7A"/>
<path id="Vector 6" d="M335.84 249.846C348.412 229.815 355.027 217.858 366.332 195.705L360.786 196.191C350.119 217.366 343.695 229.216 331.35 250.274L335.84 249.846Z" fill="#536C7A"/>
</g>
<g id="right-arm">
<path id="Vector 9" d="M544.466 363.879C526.907 330.749 518.166 310.848 502.47 276.046C489.284 295.021 482.448 305.806 472.147 325.818C479.872 348.964 488.034 362.773 498.963 379.32C487.362 396.785 482.449 407.229 473.001 425.668C487.255 436.859 495.392 442.801 511.544 449.662C524.696 432.533 529.662 424.21 545.88 394.617C551.376 384.048 549.233 372.873 544.466 363.879Z" fill="white"/>
<path id="Vector 8" d="M471.372 324.101C482.433 303.198 487.98 294.977 501.512 274.11L503.791 278.805C490.786 298.631 485.282 307.121 473.218 328.341L471.372 324.101Z" fill="#536C7A"/>
<path id="Vector 2_2" d="M491.266 483.395C502.944 475.738 507.805 459.02 509.624 448.768C494.611 442.39 487.617 437.101 476.062 426.564C473.024 428.805 470.123 429.951 463.689 440.697C457.255 451.443 466.212 450.086 470.653 451.486C475.095 452.887 449.824 481.278 462.553 487.682C473.525 493.203 480.068 490.737 491.266 483.395Z" fill="#374A55"/>
<path id="Vector 7_2" d="M511.716 449.506C500.302 444.555 481.388 430.57 473.639 424.32C472.742 425.126 471.715 427.689 471.578 428.889C474.657 433.94 497.229 448.824 509.068 454.009C509.92 453.084 511.474 450.515 511.716 449.506Z" fill="#536C7A"/>
<path id="Vector 5_2" d="M546.324 393.849C534.835 386.774 528.805 371.236 540.825 356.978C553.808 376.312 548.462 391.531 546.324 393.849Z" fill="#536C7A"/>
</g>
<g id="body-set">
<rect id="Rectangle 7" x="374.958" y="258.303" width="81.0138" height="90.8262" rx="19" transform="rotate(29.9302 374.958 258.303)" fill="#EEEEEE"/>
<rect id="Rectangle 8" x="355.375" y="319.247" width="60.1184" height="20.0456" rx="6" transform="rotate(30 355.375 319.247)" fill="#E27DAC"/>
<rect id="Rectangle 9" x="374.148" y="269.556" width="17.0881" height="13.9255" rx="2" transform="rotate(30 374.148 269.556)" fill="#E27DAC"/>
<rect id="Rectangle 10" x="392.857" y="280.358" width="17.0881" height="13.9255" rx="2" transform="rotate(30 392.857 280.358)" fill="#E27DAC"/>
</g>
<g id="flag">
<rect id="Rectangle 4" width="22.2237" height="3.81394" transform="matrix(0.822075 0.56938 -0.56914 0.82224 457.545 279.291)" fill="#E27DAC"/>
<rect id="Rectangle 5" width="22.2237" height="3.81394" transform="matrix(0.822075 0.56938 -0.56914 0.82224 455.375 282.427)" fill="#536C7A"/>
<rect id="Rectangle 6" x="453.204" y="285.563" width="22.2237" height="3.81394" transform="rotate(34.6986 453.204 285.563)" fill="#63879D"/>
</g>
<g id="left-leg">
<path id="Vector 10" d="M202.106 384.795L285.757 357.045L366.003 404.962L305.772 425.085C284.88 432.584 263.325 437.602 240.586 439.888C219.838 443.903 212.96 443.688 205.568 449.278L149.816 502.191L108.09 464.94L165.901 403.323C176.283 393.609 191.709 388.727 202.106 384.795Z" fill="white"/>
<path id="Vector 12" d="M194.403 416.553C194.688 407.295 186.463 397.015 181.979 393.095C178.186 394.558 169.429 398.877 164.741 404.446C164.467 413.137 176.655 421.618 183.518 425.58C183.518 425.58 189.523 429.61 191.544 428.677C193.565 427.745 194.115 425.941 194.403 416.553Z" fill="#536C7A"/>
<path id="Vector 13" d="M90.1589 499.805C47.5109 463.353 48.8592 436.581 108.323 470.912L145.707 502.226C145.707 502.226 131.209 534.347 120.858 525.876C106.832 514.399 90.1589 499.805 90.1589 499.805Z" fill="#374A55"/>
<path id="Vector 7_3" d="M150.07 501.928C141.283 493.807 115.822 471.647 108.344 464.677C106.932 465.713 105.798 467.471 105.407 468.614C120.477 483.275 129.17 491.985 146.884 505.145C147.598 505.247 149.282 503.721 150.07 501.928Z" fill="#536C7A"/>
</g>
<g id="right-leg">
<path id="Vector 10_2" d="M273.657 437.685C287.013 429.961 324.6 406.689 351.092 391.585L400.017 419.788C398.494 443.935 376.958 462.752 364.812 470.437C346.836 481.81 339.991 483.895 317.605 488.511C297.377 494.642 290.512 495.137 283.733 501.458L233.712 559.826L188.369 527.078L239.544 459.842C248.874 449.111 260.302 445.409 273.657 437.685Z" fill="white"/>
<path id="Vector 12_2" d="M269.661 469.26C268.86 460.034 259.487 450.792 254.574 447.425C250.978 449.323 242.785 454.638 238.781 460.718C239.526 469.379 252.625 476.371 259.905 479.5C259.905 479.5 266.342 482.798 268.24 481.635C270.138 480.471 270.474 478.616 269.661 469.26Z" fill="#536C7A"/>
<path id="Vector 13_2" d="M175.862 564.149C129.232 532.956 127.438 506.215 190.521 533.33L231.321 560.038C231.321 560.038 220.68 593.633 209.406 586.436C194.131 576.684 175.862 564.149 175.862 564.149Z" fill="#374A55"/>
<path id="Vector 7_4" d="M235.595 559.295C225.861 552.339 197.887 533.389 189.595 527.411C188.323 528.615 187.308 530.565 187.062 531.748C203.849 544.405 213.564 551.958 232.786 562.794C233.508 562.806 235.037 561.172 235.595 559.295Z" fill="#536C7A"/>
</g>
<g id="belt">
<path id="Rectangle 11" d="M287.6 346.681C289.533 343.333 293.814 342.186 297.162 344.119L405.192 406.49C408.54 408.423 409.687 412.704 407.754 416.052L405.042 420.75C403.109 424.098 398.827 425.245 395.479 423.312L287.45 360.941C284.102 359.008 282.955 354.727 284.888 351.379L287.6 346.681Z" fill="#374A55"/>
<rect id="Rectangle 12" x="300.952" y="347.638" width="1.59371" height="17.1186" rx="0.796856" transform="rotate(30 300.952 347.638)" fill="#536C7A"/>
<rect id="Rectangle 13" x="313.143" y="354.677" width="1.59371" height="17.1186" rx="0.796856" transform="rotate(30 313.143 354.677)" fill="#536C7A"/>
<rect id="Rectangle 14" x="325.335" y="361.716" width="1.59371" height="17.1186" rx="0.796856" transform="rotate(30 325.335 361.716)" fill="#536C7A"/>
<rect id="Rectangle 15" x="337.527" y="368.755" width="1.59371" height="17.1186" rx="0.796856" transform="rotate(30 337.527 368.755)" fill="#536C7A"/>
<rect id="Rectangle 16" x="349.719" y="375.794" width="1.59371" height="17.1186" rx="0.796856" transform="rotate(30 349.719 375.794)" fill="#536C7A"/>
<rect id="Rectangle 17" x="361.91" y="382.833" width="1.59371" height="17.1186" rx="0.796856" transform="rotate(30 361.91 382.833)" fill="#536C7A"/>
<rect id="Rectangle 18" x="374.102" y="389.871" width="1.59371" height="17.1186" rx="0.796856" transform="rotate(30 374.102 389.871)" fill="#536C7A"/>
<rect id="Rectangle 19" x="386.294" y="396.91" width="1.59371" height="17.1186" rx="0.796856" transform="rotate(30 386.294 396.91)" fill="#536C7A"/>
<rect id="Rectangle 20" x="398.485" y="403.949" width="1.59371" height="17.1186" rx="0.796856" transform="rotate(30 398.485 403.949)" fill="#536C7A"/>
</g>
</g>
</svg>
