<svg width="619" height="610" viewBox="0 0 619 610" fill="none" xmlns="http://www.w3.org/2000/svg">
<g id="Astronaut">
<g id="pipe">
<path id="Vector 14" d="M347.497 258.308C363.134 272.078 403.709 288.685 440.913 244.95C487.419 190.281 499.317 207.331 536.051 221.706C572.784 236.08 588.828 221.669 596.307 216.134" stroke="#F0F0F0" stroke-width="20" stroke-linecap="round"/>
<path id="Vector 15" d="M352.395 270.994C357.9 266.877 360.059 264.285 362.039 259.093" stroke="#42667C" stroke-width="2" stroke-linecap="round"/>
<path id="Vector 16" d="M373.971 279.277C377.793 273.593 378.964 270.447 379.09 264.917" stroke="#42667C" stroke-width="2" stroke-linecap="round"/>
<path id="Vector 17" d="M399.188 278.826C401.318 272.471 401.573 269.19 400.13 263.907" stroke="#42667C" stroke-width="2" stroke-linecap="round"/>
<path id="Vector 18" d="M426.1 268.396C425.073 261.857 423.778 258.844 420.018 254.788" stroke="#42667C" stroke-width="2" stroke-linecap="round"/>
<path id="Vector 19" d="M442.346 253.971C440.883 247.517 439.387 244.594 435.359 240.785" stroke="#42667C" stroke-width="2" stroke-linecap="round"/>
<path id="Vector 20" d="M457.787 239.251C455.959 232.891 454.299 230.055 450.056 226.466" stroke="#42667C" stroke-width="2" stroke-linecap="round"/>
<path id="Vector 21" d="M472.681 225.2C470.853 218.84 469.193 216.003 464.95 212.415" stroke="#42667C" stroke-width="2" stroke-linecap="round"/>
<path id="Vector 22" d="M488.525 216.295C488.503 209.66 487.682 206.489 484.588 201.937" stroke="#42667C" stroke-width="2" stroke-linecap="round"/>
<path id="Vector 23" d="M507.252 217.789C509.505 211.47 509.823 208.193 508.484 202.883" stroke="#42667C" stroke-width="2" stroke-linecap="round"/>
<path id="Vector 24" d="M525.063 224.896C528.109 218.878 528.847 215.655 528.207 210.212" stroke="#42667C" stroke-width="2" stroke-linecap="round"/>
<path id="Vector 25" d="M543.516 231.589C546.562 225.571 547.3 222.348 546.66 216.905" stroke="#42667C" stroke-width="2" stroke-linecap="round"/>
<path id="Vector 26" d="M562.663 234.856C565.25 228.651 565.744 225.39 564.693 220.015" stroke="#42667C" stroke-width="2" stroke-linecap="round"/>
<path id="Vector 27" d="M585.5 230.91C586.131 224.29 585.628 221.051 583.002 216.23" stroke="#42667C" stroke-width="2" stroke-linecap="round"/>
</g>
<path id="body" d="M221.885 142.82C228.347 131.132 264.91 135.126 297.733 138.823C329.828 143.29 370.267 145.887 376.673 158.418C383.078 170.95 348.479 321.233 348.479 321.233L211.499 306.05C211.499 306.05 215.423 154.508 221.885 142.82Z" fill="white"/>
<path id="collar" d="M247.073 144.63C248.048 135.827 257.455 130.652 265.413 134.541L287.742 145.452C294.049 148.534 301.23 149.33 308.059 147.704L332.236 141.948C340.852 139.896 348.897 147.006 347.921 155.808V155.808C347.921 155.808 347.921 155.808 347.921 155.808C347.921 155.809 346.201 171.324 295.802 165.515C245.402 159.705 247.073 144.63 247.073 144.63C247.073 144.63 247.073 144.63 247.073 144.63V144.63Z" fill="#536C7A"/>
<g id="headphone-1">
<path id="Rectangle 2" d="M245.435 66.3971V66.3971C237.252 65.4901 229.883 71.3884 228.976 79.5713L228.33 85.3964C227.423 93.5794 233.322 100.948 241.505 101.855V101.855L245.435 66.3971Z" fill="#E27DAC"/>
<ellipse id="Ellipse 6" cx="234.941" cy="76.8785" rx="1.822" ry="1.86673" transform="rotate(6.32508 234.941 76.8785)" fill="#536C7A"/>
<ellipse id="Ellipse 7" cx="234.246" cy="83.1456" rx="1.822" ry="1.86673" transform="rotate(6.32508 234.246 83.1456)" fill="#5FAA7D"/>
<ellipse id="Ellipse 8" cx="233.551" cy="89.4126" rx="1.822" ry="1.86673" transform="rotate(6.32508 233.551 89.4126)" fill="#5FA1C6"/>
</g>
<g id="headphone-2">
<path id="Rectangle 1" d="M365.696 79.7273V79.7273C373.879 80.6343 379.777 88.0032 378.87 96.1861L378.224 102.011C377.317 110.194 369.948 116.092 361.766 115.185V115.185L365.696 79.7273Z" fill="#E27DAC"/>
<ellipse id="Ellipse 9" cx="373.64" cy="92.2526" rx="1.822" ry="1.86673" transform="rotate(6.32508 373.64 92.2526)" fill="#536C7A"/>
<ellipse id="Ellipse 10" cx="372.945" cy="98.5196" rx="1.822" ry="1.86673" transform="rotate(6.32508 372.945 98.5196)" fill="#5FAA7D"/>
<ellipse id="Ellipse 11" cx="372.25" cy="104.787" rx="1.822" ry="1.86673" transform="rotate(6.32508 372.25 104.787)" fill="#5FA1C6"/>
</g>
<g id="main-head">
<ellipse id="Ellipse 1" cx="303.212" cy="93.5445" rx="65.6334" ry="65.7504" transform="rotate(6.32508 303.212 93.5445)" fill="white"/>
<ellipse id="Ellipse 4" cx="303.257" cy="93.5078" rx="58.4696" ry="58.5739" transform="rotate(6.32508 303.257 93.5078)" fill="#536C7A"/>
<path id="Subtract" fill-rule="evenodd" clip-rule="evenodd" d="M361.371 99.9495C357.807 132.102 328.899 155.283 296.804 151.725C266.211 148.334 243.764 121.872 244.817 91.5561C259.088 69.1913 285.209 55.6135 313.32 58.7295C332.813 60.8902 349.615 70.6734 361.094 84.7868C361.827 89.6968 361.944 94.7818 361.371 99.9495ZM282.016 98.3322C284.948 98.6573 287.589 96.5395 287.915 93.602C288.241 90.6646 286.128 88.0198 283.195 87.6948C280.263 87.3698 277.622 89.4876 277.297 92.425C276.971 95.3625 279.084 98.0072 282.016 98.3322ZM275.414 105.656C275.224 107.363 273.689 108.595 271.984 108.406C270.279 108.217 269.051 106.679 269.24 104.971C269.429 103.263 270.965 102.032 272.67 102.221C274.374 102.41 275.603 103.948 275.414 105.656ZM265.449 100.836C270.54 101.401 275.126 97.7234 275.692 92.6227C276.257 87.5221 272.588 82.9296 267.496 82.3652C262.405 81.8009 257.819 85.4783 257.253 90.579C256.688 95.6796 260.357 100.272 265.449 100.836Z" fill="#63879D"/>
</g>
<g id="left-arm">
<path id="Vector 2" d="M48.7166 156.421C53.5468 169.523 68.7299 177.994 78.3009 182.055L108.099 155.133C106.599 151.67 105.492 147.705 96.4767 139.031C87.4611 130.357 86.7705 139.4 84.4094 143.422C82.0484 147.443 60.0865 116.455 50.9928 127.447C43.1539 136.922 44.0849 143.857 48.7166 156.421Z" fill="#374A55"/>
<path id="Vector 1" d="M148.892 188.943C173.905 169.372 192.219 159.563 222.3 142.687L218.965 202.912L175.365 227.328C158.883 236.232 148.524 239.278 128.11 226.678C107.695 214.078 75.9154 186.699 76.981 183.113C78.0466 179.528 104.665 155.572 108.874 152.559C113.083 149.545 131.774 176.111 148.892 188.943Z" fill="white"/>
<path id="Vector 7" d="M77.1131 183.931C84.4966 173.898 102.359 158.559 110.184 152.392C109.601 151.337 107.338 149.763 106.2 149.362C100.591 151.241 81.0312 169.948 73.3239 180.343C74.0325 181.381 76.1849 183.471 77.1131 183.931Z" fill="#536C7A"/>
<path id="Vector 5" d="M130.488 227.998C138.929 224.174 158.75 219.19 170.504 229.845C155.772 239.937 137.298 233.569 130.488 227.998Z" fill="#536C7A"/>
<path id="Vector 6" d="M215.734 204.74C219.205 181.347 220.461 167.741 221.919 142.913L217.035 145.584C215.769 169.26 214.644 182.693 211.794 206.936L215.734 204.74Z" fill="#536C7A"/>
</g>
<g id="right-arm">
<path id="Vector 9" d="M452.591 225.403C423.207 202.112 407.21 187.396 378.861 161.826C374.404 184.499 372.474 197.121 371.075 219.585C387.444 237.681 400.465 247.051 417.118 257.817C413.507 278.47 413.201 290.008 411.952 310.688C429.5 315.214 439.338 317.389 456.886 317.186C462.052 296.218 463.258 286.601 466.229 252.987C467.018 241.101 460.568 231.727 452.591 225.403Z" fill="white"/>
<path id="Vector 8" d="M369.676 218.323C371.413 194.738 373.191 184.982 377.206 160.438L381.178 163.823C377.229 187.202 375.597 197.188 373.069 221.466L369.676 218.323Z" fill="#536C7A"/>
<path id="Vector 2_2" d="M451.86 356.223C459.48 344.521 457.219 327.258 454.769 317.139C438.458 317.326 429.929 315.291 415.115 310.28C413.233 313.553 411.036 315.767 409.459 328.192C407.881 340.617 415.539 335.778 420.169 335.277C424.799 334.776 413.056 370.925 427.285 371.679C439.55 372.33 444.552 367.443 451.86 356.223Z" fill="#374A55"/>
<path id="Vector 7_2" d="M456.98 316.974C444.539 317.023 421.601 311.811 411.995 309.198C411.498 310.297 411.585 313.056 411.942 314.21C416.79 317.599 443.439 322.167 456.363 322.162C456.773 320.973 457.164 317.996 456.98 316.974Z" fill="#536C7A"/>
<path id="Vector 5_2" d="M466.327 252.105C452.964 250.239 441.202 238.43 446.485 220.546C466.14 233.039 467.354 249.123 466.327 252.105Z" fill="#536C7A"/>
</g>
<g id="body-set">
<rect id="Rectangle 7" x="254.955" y="196.778" width="81.0138" height="90.8262" rx="19" transform="rotate(6.25532 254.955 196.778)" fill="#EEEEEE"/>
<rect id="Rectangle 8" x="261.493" y="260.457" width="60.1184" height="20.0456" rx="6" transform="rotate(6.32508 261.493 260.457)" fill="#E27DAC"/>
<rect id="Rectangle 9" x="258.732" y="207.409" width="17.0881" height="13.9255" rx="2" transform="rotate(6.32508 258.732 207.409)" fill="#E27DAC"/>
<rect id="Rectangle 10" x="280.204" y="209.789" width="17.0881" height="13.9255" rx="2" transform="rotate(6.32508 280.204 209.789)" fill="#E27DAC"/>
</g>
<g id="flag">
<rect id="Rectangle 4" width="22.2237" height="3.81394" transform="matrix(0.98152 0.191358 -0.191073 0.981576 339.02 182.838)" fill="#E27DAC"/>
<rect id="Rectangle 5" width="22.2237" height="3.81394" transform="matrix(0.98152 0.191358 -0.191073 0.981576 338.291 186.581)" fill="#536C7A"/>
<rect id="Rectangle 6" x="337.563" y="190.325" width="22.2237" height="3.81394" transform="rotate(11.0237 337.563 190.325)" fill="#63879D"/>
</g>
<g id="left-leg">
<path id="Vector 10" d="M147.444 382.033L212.912 323.028L305.645 334.69L258.563 377.305C242.44 392.563 224.714 405.813 204.807 417.037C187.418 429.046 181.032 431.611 176.506 439.698L146.695 510.546L93.522 493.184L121.725 413.54C127.333 400.474 139.5 389.809 147.444 382.033Z" fill="white"/>
<path id="Vector 12" d="M153.141 414.211C149.684 405.617 138.024 399.506 132.343 397.716C129.457 400.579 123.171 408.051 121.114 415.034C124.353 423.103 138.92 425.976 146.796 426.849C146.796 426.849 153.915 428.129 155.391 426.463C156.867 424.797 156.647 422.925 153.141 414.211Z" fill="#536C7A"/>
<path id="Vector 13" d="M91.0999 532.315C37.404 516.056 27.8884 490.996 96.133 498.56L142.945 512.227C142.945 512.227 142.565 547.467 129.684 543.865C112.23 538.986 91.0999 532.315 91.0999 532.315Z" fill="#374A55"/>
<path id="Vector 7_3" d="M146.822 510.203C135.513 506.293 103.297 496.222 93.649 492.841C92.7722 494.357 92.4391 496.422 92.5396 497.627C112.229 505.002 123.688 509.489 145.195 514.428C145.891 514.235 146.82 512.161 146.822 510.203Z" fill="#536C7A"/>
</g>
<g id="right-leg">
<path id="Vector 10_2" d="M234.21 401.74C243.34 389.303 268.419 352.897 286.617 328.426L342.75 334.61C351.051 357.336 338.883 383.218 330.845 395.133C318.949 412.767 313.517 417.424 294.869 430.641C278.805 444.379 272.716 447.589 269.046 456.1L246.672 529.642L191.996 517.857L211.866 435.73C216.101 422.157 225.08 414.177 234.21 401.74Z" fill="white"/>
<path id="Vector 12_2" d="M243.23 432.263C238.791 424.135 226.496 419.434 220.644 418.324C218.113 421.506 212.744 429.663 211.518 436.839C215.679 444.472 230.482 445.616 238.407 445.558C238.407 445.558 245.626 445.994 246.897 444.166C248.169 442.339 247.731 440.505 243.23 432.263Z" fill="#536C7A"/>
<path id="Vector 13_2" d="M195.427 556.83C140.196 546.986 127.815 523.216 196.477 522.718L244.568 530.796C244.568 530.796 248.312 565.836 235.097 563.772C217.192 560.974 195.427 556.83 195.427 556.83Z" fill="#374A55"/>
<path id="Vector 7_4" d="M248.184 528.399C236.476 525.937 203.246 519.815 193.252 517.669C192.571 519.283 192.424 521.477 192.674 522.659C213.131 527.51 225.061 530.526 247.017 532.732C247.683 532.453 248.427 530.342 248.184 528.399Z" fill="#536C7A"/>
</g>
<g id="belt">
<path id="Rectangle 11" d="M210.438 312.797C210.864 308.954 214.324 306.184 218.166 306.61L342.149 320.353C345.991 320.779 348.761 324.239 348.335 328.082L347.737 333.473C347.311 337.316 343.851 340.085 340.009 339.66L216.026 325.917C212.184 325.491 209.414 322.031 209.84 318.188L210.438 312.797Z" fill="#374A55"/>
<rect id="Rectangle 12" x="223.05" y="308.312" width="1.59371" height="17.1186" rx="0.796856" transform="rotate(6.32508 223.05 308.312)" fill="#536C7A"/>
<rect id="Rectangle 13" x="237.042" y="309.863" width="1.59371" height="17.1186" rx="0.796856" transform="rotate(6.32508 237.042 309.863)" fill="#536C7A"/>
<rect id="Rectangle 14" x="251.034" y="311.414" width="1.59371" height="17.1186" rx="0.796856" transform="rotate(6.32508 251.034 311.414)" fill="#536C7A"/>
<rect id="Rectangle 15" x="265.026" y="312.965" width="1.59371" height="17.1186" rx="0.796856" transform="rotate(6.32508 265.026 312.965)" fill="#536C7A"/>
<rect id="Rectangle 16" x="279.018" y="314.516" width="1.59371" height="17.1186" rx="0.796856" transform="rotate(6.32508 279.018 314.516)" fill="#536C7A"/>
<rect id="Rectangle 17" x="293.01" y="316.067" width="1.59371" height="17.1186" rx="0.796856" transform="rotate(6.32508 293.01 316.067)" fill="#536C7A"/>
<rect id="Rectangle 18" x="307.002" y="317.617" width="1.59371" height="17.1186" rx="0.796856" transform="rotate(6.32508 307.002 317.617)" fill="#536C7A"/>
<rect id="Rectangle 19" x="320.995" y="319.168" width="1.59371" height="17.1186" rx="0.796856" transform="rotate(6.32508 320.995 319.168)" fill="#536C7A"/>
<rect id="Rectangle 20" x="334.987" y="320.719" width="1.59371" height="17.1186" rx="0.796856" transform="rotate(6.32508 334.987 320.719)" fill="#536C7A"/>
</g>
</g>
</svg>
