<svg width="620" height="610" viewBox="0 0 620 610" fill="none" xmlns="http://www.w3.org/2000/svg">
<g id="Astronaut">
<g id="pipe">
<path id="Vector 14" d="M348.052 258.369C363.719 272.143 404.369 288.758 441.631 245.029C488.208 190.368 500.13 207.421 536.931 221.803C573.732 236.185 589.801 221.777 597.292 216.243" stroke="#F0F0F0" stroke-width="20" stroke-linecap="round"/>
<path id="Vector 15" d="M352.962 271.057C358.475 266.94 360.638 264.35 362.62 259.158" stroke="#E8E8E8" stroke-width="2" stroke-linecap="round"/>
<path id="Vector 16" d="M374.577 279.344C378.405 273.661 379.577 270.515 379.702 264.985" stroke="#E8E8E8" stroke-width="2" stroke-linecap="round"/>
<path id="Vector 17" d="M399.838 278.898C401.971 272.543 402.226 269.262 400.779 263.979" stroke="#E8E8E8" stroke-width="2" stroke-linecap="round"/>
<path id="Vector 18" d="M426.796 268.473C425.766 261.933 424.468 258.92 420.7 254.864" stroke="#E8E8E8" stroke-width="2" stroke-linecap="round"/>
<path id="Vector 19" d="M443.067 254.051C441.6 247.597 440.102 244.674 436.065 240.864" stroke="#E8E8E8" stroke-width="2" stroke-linecap="round"/>
<path id="Vector 20" d="M458.533 239.334C456.701 232.973 455.037 230.136 450.786 226.547" stroke="#E8E8E8" stroke-width="2" stroke-linecap="round"/>
<path id="Vector 21" d="M473.451 225.285C471.618 218.924 469.954 216.087 465.703 212.498" stroke="#E8E8E8" stroke-width="2" stroke-linecap="round"/>
<path id="Vector 22" d="M489.321 216.383C489.297 209.748 488.474 206.577 485.374 202.024" stroke="#E8E8E8" stroke-width="2" stroke-linecap="round"/>
<path id="Vector 23" d="M508.08 217.88C510.337 211.563 510.655 208.285 509.312 202.975" stroke="#E8E8E8" stroke-width="2" stroke-linecap="round"/>
<path id="Vector 24" d="M525.925 224.991C528.975 218.974 529.713 215.751 529.071 210.308" stroke="#E8E8E8" stroke-width="2" stroke-linecap="round"/>
<path id="Vector 25" d="M544.412 231.688C547.461 225.671 548.2 222.448 547.558 217.005" stroke="#E8E8E8" stroke-width="2" stroke-linecap="round"/>
<path id="Vector 26" d="M563.593 234.959C566.184 228.754 566.677 225.494 565.624 220.118" stroke="#E8E8E8" stroke-width="2" stroke-linecap="round"/>
<path id="Vector 27" d="M586.469 231.018C587.1 224.397 586.596 221.159 583.964 216.336" stroke="#E8E8E8" stroke-width="2" stroke-linecap="round"/>
</g>
<path id="body" d="M222.197 142.854C228.668 131.167 265.296 135.168 298.177 138.872C330.33 143.345 370.841 145.95 377.26 158.483C383.679 171.016 349.049 321.296 349.049 321.296L211.824 306.086C211.824 306.086 215.725 154.542 222.197 142.854Z" fill="white"/>
<path id="collar" d="M247.429 144.669C248.405 135.864 257.812 130.686 265.773 134.571L288.18 145.504C294.493 148.585 301.679 149.381 308.513 147.758L332.77 141.997C341.389 139.95 349.433 147.063 348.457 155.868V155.868C348.457 155.868 348.457 155.868 348.457 155.868C348.457 155.868 346.737 171.384 296.248 165.564C245.758 159.744 247.429 144.67 247.429 144.669C247.429 144.669 247.429 144.669 247.429 144.669V144.669Z" fill="#6B5FAA"/>
<g id="headphone-1">
<path id="Rectangle 2" d="M245.773 66.4346V66.4346C237.576 65.526 230.194 71.4348 229.285 79.6323L228.645 85.4046C227.737 93.6021 233.645 100.984 241.843 101.893V101.893L245.773 66.4346Z" fill="#E27DAC"/>
<ellipse id="Ellipse 6" cx="235.263" cy="76.9142" rx="1.82525" ry="1.86673" transform="rotate(6.32508 235.263 76.9142)" fill="#6B5FAA"/>
<ellipse id="Ellipse 7" cx="234.568" cy="83.1812" rx="1.82525" ry="1.86673" transform="rotate(6.32508 234.568 83.1812)" fill="#5FAA7D"/>
<ellipse id="Ellipse 8" cx="233.873" cy="89.4483" rx="1.82525" ry="1.86673" transform="rotate(6.32508 233.873 89.4483)" fill="#5F8FAA"/>
</g>
<g id="headphone-2">
<path id="Rectangle 1" d="M366.248 79.7885V79.7885C374.446 80.6972 380.355 88.0792 379.446 96.2767L378.806 102.049C377.898 110.246 370.516 116.155 362.318 115.247V115.247L366.248 79.7885Z" fill="#E27DAC"/>
<ellipse id="Ellipse 9" cx="374.209" cy="92.3156" rx="1.82525" ry="1.86673" transform="rotate(6.32508 374.209 92.3156)" fill="#6B5FAA"/>
<ellipse id="Ellipse 10" cx="373.514" cy="98.5826" rx="1.82525" ry="1.86673" transform="rotate(6.32508 373.514 98.5826)" fill="#5FAA7D"/>
<ellipse id="Ellipse 11" cx="372.819" cy="104.85" rx="1.82525" ry="1.86673" transform="rotate(6.32508 372.819 104.85)" fill="#5F8FAA"/>
</g>
<g id="main-head">
<circle id="Ellipse 1" cx="303.657" cy="93.5939" r="65.7504" transform="rotate(6.32508 303.657 93.5939)" fill="white"/>
<circle id="Ellipse 4" cx="303.703" cy="93.5572" r="58.5739" transform="rotate(6.32508 303.703 93.5572)" fill="#6B5FAA"/>
<path id="Subtract" fill-rule="evenodd" clip-rule="evenodd" d="M361.92 100.01C358.356 132.163 329.402 155.339 297.25 151.775C266.601 148.377 244.11 121.91 245.159 91.5935C259.451 69.2313 285.615 55.6585 313.777 58.7801C333.305 60.9446 350.138 70.7315 361.64 84.8477C362.375 89.7579 362.493 94.8428 361.92 100.01ZM282.425 98.3776C285.363 98.7032 288.008 96.5858 288.333 93.6484C288.659 90.7109 286.542 88.0657 283.604 87.7401C280.667 87.4145 278.022 89.5318 277.696 92.4693C277.37 95.4067 279.488 98.052 282.425 98.3776ZM275.812 105.7C275.623 107.408 274.085 108.639 272.377 108.449C270.669 108.26 269.438 106.722 269.628 105.014C269.817 103.306 271.355 102.075 273.063 102.265C274.771 102.454 276.002 103.992 275.812 105.7ZM265.829 100.879C270.93 101.444 275.523 97.7674 276.088 92.6667C276.654 87.566 272.977 82.9728 267.876 82.4074C262.776 81.842 258.182 85.5186 257.617 90.6193C257.052 95.72 260.728 100.313 265.829 100.879Z" fill="#4C3187"/>
</g>
<g id="left-arm">
<path id="Vector 2" d="M48.7259 156.422C53.5672 169.526 68.7787 177.999 78.3674 182.062L108.212 155.146C106.71 151.682 105.6 147.717 96.5668 139.041C87.5336 130.365 86.8436 139.408 84.4791 143.429C82.1147 147.451 60.1081 116.457 51.0005 127.448C43.1496 136.922 44.0836 143.857 48.7259 156.422Z" fill="#8478C5"/>
<path id="Vector 1" d="M149.084 188.964C174.137 169.397 192.481 159.592 222.613 142.722L219.284 202.947L175.611 227.356C159.102 236.256 148.725 239.3 128.273 226.696C107.82 214.091 75.9786 186.706 77.0454 183.121C78.1121 179.535 104.773 155.584 108.989 152.571C113.205 149.558 131.933 176.129 149.084 188.964Z" fill="white"/>
<path id="Vector 7" d="M77.1778 183.938C84.5724 173.906 102.463 158.571 110.301 152.405C109.717 151.35 107.449 149.775 106.309 149.374C100.691 151.252 81.1001 169.955 73.3813 180.35C74.0914 181.388 76.2479 183.478 77.1778 183.938Z" fill="#6B5FAA"/>
<path id="Vector 5" d="M130.655 228.016C139.111 224.194 158.966 219.214 170.742 229.872C155.986 239.961 137.478 233.589 130.655 228.016Z" fill="#6B5FAA"/>
<path id="Vector 6" d="M216.047 204.775C219.519 181.382 220.775 167.775 222.231 142.947L217.339 145.618C216.075 169.294 214.95 182.727 212.1 206.97L216.047 204.775Z" fill="#6B5FAA"/>
</g>
<g id="right-arm">
<path id="Vector 9" d="M453.325 225.485C423.884 202.188 407.857 187.468 379.453 161.891C374.992 184.564 373.061 197.186 371.665 219.65C388.066 237.75 401.111 247.122 417.796 257.892C414.182 278.545 413.878 290.083 412.631 310.764C430.211 315.293 440.067 317.47 457.646 317.27C462.817 296.303 464.023 286.686 466.993 253.071C467.781 241.185 461.318 231.81 453.325 225.485Z" fill="white"/>
<path id="Vector 8" d="M370.263 218.388C371.998 194.803 373.777 185.047 377.795 160.503L381.774 163.889C377.823 187.268 376.19 197.253 373.662 221.532L370.263 218.388Z" fill="#6B5FAA"/>
<path id="Vector 2_2" d="M452.618 356.307C460.25 344.606 457.981 327.343 455.525 317.222C439.185 317.407 430.641 315.37 415.8 310.356C413.915 313.628 411.715 315.842 410.137 328.268C408.559 340.693 416.229 335.854 420.868 335.354C425.506 334.854 413.749 371.002 428.003 371.759C440.29 372.412 445.3 367.526 452.618 356.307Z" fill="#8478C5"/>
<path id="Vector 7_2" d="M457.74 317.059C445.277 317.105 422.298 311.888 412.674 309.274C412.176 310.372 412.264 313.131 412.622 314.286C417.479 317.676 444.176 322.249 457.123 322.246C457.533 321.057 457.925 318.08 457.74 317.059Z" fill="#6B5FAA"/>
<path id="Vector 5_2" d="M467.09 252.19C453.703 250.321 441.918 238.509 447.208 220.626C466.899 233.123 468.119 249.208 467.09 252.19Z" fill="#6B5FAA"/>
</g>
<g id="body-set">
<rect id="Rectangle 7" x="255.336" y="196.82" width="81.1582" height="90.8262" rx="19" transform="rotate(6.25532 255.336 196.82)" fill="#EEEEEE"/>
<rect id="Rectangle 8" x="261.897" y="260.501" width="60.2256" height="20.0456" rx="6" transform="rotate(6.32508 261.897 260.501)" fill="#E27DAC"/>
<rect id="Rectangle 9" x="259.121" y="207.452" width="17.1186" height="13.9255" rx="2" transform="rotate(6.32508 259.121 207.452)" fill="#E27DAC"/>
<rect id="Rectangle 10" x="280.632" y="209.837" width="17.1186" height="13.9255" rx="2" transform="rotate(6.32508 280.632 209.837)" fill="#E27DAC"/>
</g>
<g id="flag">
<rect id="Rectangle 4" x="339.546" y="182.896" width="22.2631" height="3.81399" transform="rotate(11.0237 339.546 182.896)" fill="#E27DAC"/>
<rect id="Rectangle 5" x="338.816" y="186.639" width="22.2631" height="3.81399" transform="rotate(11.0237 338.816 186.639)" fill="#6B5FAA"/>
<rect id="Rectangle 6" x="338.087" y="190.383" width="22.2631" height="3.81399" transform="rotate(11.0237 338.087 190.383)" fill="#4C3187"/>
</g>
<g id="left-leg">
<path id="Vector 10" d="M147.671 382.058L213.243 323.065L306.141 334.745L258.985 377.351C242.837 392.607 225.082 405.854 205.143 417.075C187.725 429.08 181.328 431.644 176.796 439.731L146.946 510.573L93.676 493.201L121.914 413.561C127.529 400.496 139.715 389.832 147.671 382.058Z" fill="white"/>
<path id="Vector 12" d="M153.385 414.238C149.92 405.644 138.238 399.53 132.546 397.739C129.656 400.601 123.361 408.072 121.302 415.054C124.548 423.125 139.141 426 147.031 426.875C147.031 426.875 154.162 428.156 155.641 426.491C157.119 424.825 156.898 422.953 153.385 414.238Z" fill="#6B5FAA"/>
<path id="Vector 13" d="M91.2573 532.333C37.4636 516.063 27.9264 491 96.2927 498.578L143.19 512.254C143.19 512.254 142.816 547.495 129.911 543.891C112.426 539.007 91.2573 532.333 91.2573 532.333Z" fill="#8478C5"/>
<path id="Vector 7_3" d="M147.073 510.23C135.743 506.319 103.469 496.241 93.8032 492.858C92.9251 494.374 92.5918 496.439 92.6927 497.644C112.418 505.023 123.898 509.512 145.444 514.456C146.141 514.263 147.072 512.189 147.073 510.23Z" fill="#6B5FAA"/>
</g>
<g id="right-leg">
<path id="Vector 10_2" d="M234.594 401.782C243.738 389.347 268.854 352.945 287.079 328.477L343.312 334.672C351.632 357.4 339.448 383.28 331.398 395.194C319.484 412.827 314.044 417.483 295.365 430.697C279.276 444.431 273.177 447.64 269.502 456.15L247.103 529.69L192.328 517.894L212.217 435.769C216.457 422.196 225.451 414.218 234.594 401.782Z" fill="white"/>
<path id="Vector 12_2" d="M243.636 432.308C239.188 424.179 226.87 419.476 221.008 418.364C218.473 421.545 213.096 429.702 211.869 436.878C216.038 444.512 230.868 445.658 238.806 445.602C238.806 445.602 246.038 446.039 247.312 444.212C248.585 442.385 248.146 440.551 243.636 432.308Z" fill="#6B5FAA"/>
<path id="Vector 13_2" d="M195.773 556.869C140.443 547.013 128.035 523.241 196.818 522.756L244.995 530.843C244.995 530.843 248.753 565.885 235.514 563.818C217.577 561.017 195.773 556.869 195.773 556.869Z" fill="#8478C5"/>
<path id="Vector 7_4" d="M248.617 528.447C236.888 525.983 203.599 519.854 193.586 517.706C192.905 519.32 192.758 521.514 193.009 522.696C213.502 527.551 225.454 530.569 247.449 532.779C248.116 532.501 248.861 530.39 248.617 528.447Z" fill="#6B5FAA"/>
</g>
<g id="belt">
<path id="Rectangle 11" d="M210.762 312.833C211.188 308.99 214.649 306.22 218.491 306.646L342.719 320.416C346.562 320.842 349.331 324.302 348.905 328.145L348.308 333.537C347.882 337.379 344.422 340.149 340.579 339.723L216.351 325.953C212.509 325.527 209.739 322.067 210.165 318.224L210.762 312.833Z" fill="#8478C5"/>
<rect id="Rectangle 12" x="223.396" y="308.35" width="1.59655" height="17.1186" rx="0.798277" transform="rotate(6.32508 223.396 308.35)" fill="#6B5FAA"/>
<rect id="Rectangle 13" x="237.413" y="309.904" width="1.59655" height="17.1186" rx="0.798277" transform="rotate(6.32508 237.413 309.904)" fill="#6B5FAA"/>
<rect id="Rectangle 14" x="251.43" y="311.458" width="1.59655" height="17.1186" rx="0.798277" transform="rotate(6.32508 251.43 311.458)" fill="#6B5FAA"/>
<rect id="Rectangle 15" x="265.447" y="313.011" width="1.59655" height="17.1186" rx="0.798277" transform="rotate(6.32508 265.447 313.011)" fill="#6B5FAA"/>
<rect id="Rectangle 16" x="279.464" y="314.565" width="1.59655" height="17.1186" rx="0.798277" transform="rotate(6.32508 279.464 314.565)" fill="#6B5FAA"/>
<rect id="Rectangle 17" x="293.481" y="316.119" width="1.59655" height="17.1186" rx="0.798277" transform="rotate(6.32508 293.481 316.119)" fill="#6B5FAA"/>
<rect id="Rectangle 18" x="307.498" y="317.672" width="1.59655" height="17.1186" rx="0.798277" transform="rotate(6.32508 307.498 317.672)" fill="#6B5FAA"/>
<rect id="Rectangle 19" x="321.515" y="319.226" width="1.59655" height="17.1186" rx="0.798277" transform="rotate(6.32508 321.515 319.226)" fill="#6B5FAA"/>
<rect id="Rectangle 20" x="335.532" y="320.78" width="1.59655" height="17.1186" rx="0.798277" transform="rotate(6.32508 335.532 320.78)" fill="#6B5FAA"/>
</g>
</g>
</svg>
