<svg width="12" height="12" viewBox="0 0 12 12" fill="none" xmlns="http://www.w3.org/2000/svg">
<path d="M1.05022 1.05028C0.659692 1.4408 0.659692 2.07397 1.05022 2.46449L4.5858 6L1.05023 9.5356C0.659702 9.9261 0.659702 10.5593 1.05023 10.9498C1.44075 11.3403 2.07392 11.3403 2.46444 10.9498L6 7.4142L9.5355 10.9498C9.926 11.3403 10.5592 11.3403 10.9497 10.9498C11.3402 10.5592 11.3402 9.9261 10.9497 9.5356L7.4142 6L10.9497 2.46449C11.3402 2.07397 11.3402 1.4408 10.9497 1.05028C10.5592 0.659763 9.926 0.659763 9.5355 1.05028L6 4.5858L2.46443 1.05028C2.07391 0.659753 1.44074 0.659753 1.05022 1.05028Z" fill="#8E8E8E"/>
</svg>
