<svg width="527" height="549" viewBox="0 0 527 549" fill="none" xmlns="http://www.w3.org/2000/svg">
<path d="M115.761 417.374L159.248 342.775L217.231 446.012L159.248 545.714L115.761 417.374Z" fill="#645E70"/>
<path d="M408.36 417.058L358.254 346.733L309.923 454.826L376.753 548.827L408.36 417.058Z" fill="#767084"/>
<path d="M330.015 461.215C433.253 287.267 386.584 124.632 262.84 0.88861C175.512 100.237 81.1136 262.518 197.079 460.508L330.015 461.215Z" fill="#EEEEEE"/>
<path d="M162.077 385.201C244.066 396.683 288.72 397.542 365.017 388.03C359.713 407.475 339.561 445.305 330.015 461.215C304.351 471.674 213.581 469.334 197.079 460.508C180.108 432.931 167.38 401.111 162.077 385.201Z" fill="#E27DAC"/>
<circle r="68" transform="matrix(-0.707107 -0.707107 -0.707107 0.707107 263.166 220.167)" fill="#757575"/>
<circle r="45" transform="matrix(-0.707107 -0.707107 -0.707107 0.707107 263.167 220.167)" fill="#8478C5"/>
<rect width="33.1673" height="5.68205" transform="matrix(-0.998054 -0.062358 -0.062358 0.998054 280.548 323.757)" fill="#E27DAC"/>
<rect width="33.1673" height="5.68205" transform="matrix(-0.998054 -0.062358 -0.062358 0.998054 280.193 329.428)" fill="#6B5FAA"/>
<rect width="33.1673" height="5.68205" transform="matrix(-0.998054 -0.062358 -0.062358 0.998054 279.839 335.099)" fill="#4C3187"/>
<path d="M262.69 468.398V1C80.2566 204.647 147.775 380.248 196.929 460.619C210.605 466.483 227.574 466.767 262.69 468.398Z" fill="black" fill-opacity="0.07"/>
</svg>
