<svg width="675" height="675" viewBox="0 0 675 675" fill="none" xmlns="http://www.w3.org/2000/svg">
<g id="rocket-full">
<g id="fire">
<path id="flame6" d="M459.863 378.905C451.94 369.76 444.722 355.202 444.722 355.202C455.581 337.859 462.367 351.996 525.191 354.552C588.017 357.106 598.636 375.322 598.636 375.322C595.37 371.508 555.517 366.711 543.041 378.69C530.566 390.669 502.1 391.637 486.247 389.557C470.395 387.478 466.564 386.641 459.863 378.905Z" fill="#F36E21"/>
<path id="flame5" d="M541.552 368.33C563.466 359.537 560.704 347.965 633.127 374.545C633.127 374.545 612.399 329.283 530.946 308.421C449.495 287.56 444.708 348.467 443.882 348.261C443.056 348.054 447.729 376.743 473.773 366.78C499.817 356.817 519.639 377.124 541.552 368.33Z" fill="#F6891F"/>
<path id="flame4" d="M601.329 331.312C601.329 331.312 562.739 318.749 541.833 333.099C520.928 347.451 483.977 371.618 446.327 345.286C446.327 345.286 488.038 279.294 601.329 331.312Z" fill="#FFD04A"/>
<path id="flame3" d="M564.902 308.469C564.902 308.469 499.876 350.963 449.296 340.422C449.296 340.422 467.108 289.416 513.055 302.708C559.002 315.996 546.736 310.667 564.902 308.469Z" fill="#FDBA16"/>
<path id="flame2" d="M558.207 304.47C558.207 304.47 511.396 296.813 489.472 314.341C467.548 331.867 449.399 341.269 449.399 341.269C449.399 341.269 466.35 268.964 558.207 304.47Z" fill="#F36E21"/>
<path id="flame1" d="M568.085 364.59C568.085 364.59 471.477 399.618 452.017 362.919C432.556 326.219 527.741 359.049 568.085 364.59Z" fill="#FDBA16"/>
</g>
<g id="rocket">
<path id="Vector 41" d="M416.708 488.384L342.108 444.897L445.345 386.914L545.047 444.897L416.708 488.384Z" fill="#536B7A"/>
<path id="Vector 42" d="M416.39 195.785L346.065 245.892L454.159 294.222L548.16 227.392L416.39 195.785Z" fill="#63879D"/>
<path id="Vector 40" d="M460.548 274.13C286.6 170.893 123.965 217.562 0.221343 341.306C99.5698 428.633 261.851 523.032 459.841 407.066L460.548 274.13Z" fill="#EEEEEE"/>
<path id="Vector 43" d="M384.534 442.068C396.016 360.08 396.876 315.425 387.363 239.129C406.808 244.432 444.638 264.585 460.548 274.13C471.008 299.794 468.667 390.564 459.841 407.067C432.264 424.037 400.444 436.765 384.534 442.068Z" fill="#E27DAC"/>
<circle id="Ellipse 15" r="68" transform="matrix(-0.707107 0.707107 0.707107 0.707107 220.132 334.942)" fill="#757575"/>
<circle id="Ellipse 14" r="45" transform="matrix(-0.707107 0.707107 0.707107 0.707107 220.132 334.942)" fill="#A6C0D0"/>
<g id="flag">
<rect id="Rectangle 4" width="33.1673" height="5.68205" transform="matrix(-0.062358 0.998054 0.998054 0.062358 323.321 319.2)" fill="#E27DAC"/>
<rect id="Rectangle 5" width="33.1673" height="5.68205" transform="matrix(-0.062358 0.998054 0.998054 0.062358 328.992 319.555)" fill="#606575"/>
<rect id="Rectangle 6" width="33.1673" height="5.68205" transform="matrix(-0.062358 0.998054 0.998054 0.062358 334.663 319.909)" fill="#606575"/>
</g>
<path id="Vector 44" d="M467.619 341.306H0.221623C203.868 523.739 379.469 456.22 459.841 407.067C465.704 393.391 465.989 376.422 467.619 341.306Z" fill="black" fill-opacity="0.07"/>
</g>
</g>
</svg>
