<svg width="667" height="670" viewBox="0 0 667 670" fill="none" xmlns="http://www.w3.org/2000/svg">
<g id="rocket-full">
<g id="fire">
<path id="flame6" d="M460.431 359.395C451.318 351.435 442.152 338.018 442.152 338.018C450.504 319.338 459.183 332.398 521.756 326.224C584.329 320.048 597.37 336.617 597.37 336.617C593.606 333.293 553.473 334.064 542.777 347.656C532.083 361.248 504.025 366.151 488.038 366.288C472.05 366.425 468.14 366.127 460.431 359.395Z" fill="#F36E21"/>
<path id="flame5" d="M539.867 337.603C560.351 325.857 556.012 314.779 631.421 331.068C631.421 331.068 604.621 289.114 521.063 279.741C437.507 270.367 441.206 331.35 440.359 331.26C439.512 331.169 448.115 358.934 472.527 345.459C496.94 331.983 519.385 349.347 539.867 337.603Z" fill="#F6891F"/>
<path id="flame4" d="M593.939 292.659C593.939 292.659 553.98 285.563 535.264 302.672C516.549 319.782 483.304 348.836 442.368 327.975C442.368 327.975 474.532 256.841 593.939 292.659Z" fill="#FFD04A"/>
<path id="flame3" d="M554.698 275.083C554.698 275.083 496.187 326.177 444.634 322.747C444.634 322.747 455.207 269.765 502.552 276.561C549.897 283.355 537.011 279.777 554.698 275.083Z" fill="#FDBA16"/>
<path id="flame2" d="M547.514 272.051C547.514 272.051 500.093 270.954 480.809 291.35C461.525 311.745 444.854 323.571 444.854 323.571C444.854 323.571 451.623 249.615 547.514 272.051Z" fill="#F36E21"/>
<path id="flame1" d="M565.626 330.221C565.626 330.221 474.804 378.299 450.447 344.65C426.088 311 524.904 330.324 565.626 330.221Z" fill="#FDBA16"/>
</g>
<g id="rocket">
<path id="Vector 41" d="M432.862 473.797L352.956 441.066L447.164 369.337L553.938 412.946L432.862 473.797Z" fill="#645E70"/>
<path id="Vector 42" d="M392.005 184.065L329.301 243.432L443.049 276.319L526.883 197.108L392.005 184.065Z" fill="#767084"/>
<path id="Vector 40" d="M446.592 255.535C260.017 177.396 105.418 246.15 0.0141082 385.847C110.505 458.566 284.3 529.568 464.312 387.287L446.592 255.535Z" fill="#EEEEEE"/>
<path id="Vector 43" d="M394.581 432.386C394.592 349.597 389.256 305.254 369.263 231.012C389.255 233.57 429.513 248.286 446.592 255.535C460.507 279.502 470.766 369.72 464.312 387.287C439.352 407.915 409.603 424.929 394.581 432.386Z" fill="#E27DAC"/>
<circle id="Ellipse 15" r="68" transform="matrix(-0.602307 0.798265 0.798265 0.602307 216.921 349.073)" fill="#757575"/>
<circle id="Ellipse 14" r="45" transform="matrix(-0.602307 0.798265 0.798265 0.602307 216.921 349.073)" fill="#8478C5"/>
<g id="flag">
<rect id="Rectangle 4" width="33.1673" height="5.68205" transform="matrix(0.076537 0.997067 0.997067 -0.076537 316.934 319.185)" fill="#E27DAC"/>
<rect id="Rectangle 5" width="33.1673" height="5.68205" transform="matrix(0.076537 0.997067 0.997067 -0.076537 322.599 318.75)" fill="#6B5FAA"/>
<rect id="Rectangle 6" width="33.1673" height="5.68205" transform="matrix(0.076537 0.997067 0.997067 -0.076537 328.265 318.315)" fill="#4C3187"/>
</g>
<path id="Vector 44" d="M462.903 321.083L0.0142486 385.847C226.975 538.303 391.527 447.103 464.312 387.287C468.224 372.931 466.154 356.086 462.903 321.083Z" fill="black" fill-opacity="0.07"/>
</g>
</g>
</svg>
